# xmcd CD database file
#
# Track frame offsets:
#	150
#	40095
#	73059
#	124490
#	158927
#	172506
#	235577
#	292975
#
# Disc length: 4405 seconds
#
# Revision: 1
# Processed by: cddbd v1.5.2PL0 Copyright (c) Steve Scherf et al.
# Submitted via: CDex 1.99.1
#
DISCID=64113308
DTITLE=Return To Forever - Returns [CD II)
DYEAR=2009
DGENRE=Jazz
TTITLE0=Friendship (Chick's Solo, Including: Solar)
TTITLE1=Romantic Warrior
TTITLE2=El Bayo De Negro (Stanley's Solo)
TTITLE3=Lineage (Lenny's Solo)
TTITLE4=Romatic Warrior (Continued)
TTITLE5=Duel Of The Jester And The Tyrant
TTITLE6=500 Miles High
TTITLE7=BBC Lifetime Achievement award to RTF including a performance of Romantic Warrior
EXTD=YEAR: 2009
EXTT0=
EXTT1=
EXTT2=
EXTT3=
EXTT4=
EXTT5=
EXTT6=
EXTT7=
PLAYORDER=
